<!DOCTYPE svg PUBLIC "-//W3C//DTD SVG 20010904//EN" "http://www.w3.org/TR/2001/REC-SVG-20010904/DTD/svg10.dtd">
<svg version="1.0" xmlns="http://www.w3.org/2000/svg" width="305px" height="203px" viewBox="0 0 3050 2030" preserveAspectRatio="xMidYMid meet">
<g id="layer1" fill="#040404" stroke="none">
 <path d="M252 1864 c-21 -14 -22 -22 -22 -139 0 -117 1 -125 22 -139 27 -19 106 -20 131 -2 18 14 25 82 7 71 -5 -3 -6 -13 -3 -22 9 -23 -23 -43 -68 -43 -70 0 -69 -1 -69 135 0 136 0 135 68 135 47 0 61 -9 72 -46 l8 -29 1 32 c1 41 -29 63 -84 63 -22 0 -51 -7 -63 -16z"/>
 <path d="M522 1864 c-21 -14 -22 -22 -22 -139 0 -117 1 -125 22 -139 33 -23 109 -21 136 4 20 19 22 30 22 135 0 111 -1 114 -26 134 -32 25 -100 28 -132 5z m119 -14 c17 -10 19 -22 19 -123 0 -75 -4 -117 -12 -125 -13 -13 -85 -16 -112 -6 -13 5 -16 26 -16 129 0 89 3 125 13 128 22 9 88 7 108 -3z"/>
 <path d="M782 1739 c3 -160 8 -169 83 -169 65 0 85 20 85 89 0 31 -6 65 -13 75 -15 21 -107 36 -107 17 0 -6 11 -11 24 -11 14 0 36 -4 50 -10 24 -9 26 -14 26 -69 0 -44 -4 -60 -16 -65 -27 -10 -89 -7 -102 6 -8 8 -12 55 -12 145 0 88 -4 133 -11 133 -7 0 -9 -45 -7 -141z"/>
 <path d="M1040 1751 c0 -115 2 -131 21 -155 17 -21 29 -26 68 -26 26 0 56 7 69 16 21 14 22 22 22 155 0 86 -4 139 -10 139 -6 0 -10 -28 -10 -65 l0 -66 -67 3 -68 3 -3 63 c-2 34 -7 62 -12 62 -6 0 -10 -54 -10 -129z m160 -85 c0 -49 -4 -65 -16 -70 -27 -10 -99 -7 -112 6 -7 7 -12 38 -12 70 l0 58 70 0 70 0 0 -64z"/>
 <path d="M1352 1860 c-20 -19 -22 -30 -22 -140 0 -112 1 -120 22 -134 30 -21 112 -21 132 0 9 8 15 30 15 47 -2 28 -2 29 -6 7 -8 -39 -22 -50 -68 -50 -76 0 -75 -2 -75 129 0 78 4 121 12 129 14 14 86 16 106 3 7 -4 17 -21 22 -37 l8 -29 1 31 c1 43 -25 64 -80 64 -32 0 -52 -6 -67 -20z"/>
 <path d="M1600 1747 c0 -120 2 -135 20 -155 25 -27 103 -30 138 -6 21 14 22 22 22 155 0 86 -4 139 -10 139 -6 0 -10 -28 -10 -65 l0 -65 -70 0 -70 0 0 65 c0 37 -4 65 -10 65 -6 0 -10 -51 -10 -133z m160 -81 c0 -49 -4 -65 -16 -70 -27 -10 -99 -7 -112 6 -7 7 -12 38 -12 70 l0 58 70 0 70 0 0 -64z"/>
 <path d="M1907 1862 c-14 -15 -17 -41 -17 -139 0 -103 3 -122 18 -136 27 -25 106 -23 132 3 25 25 27 91 3 115 -16 16 -16 18 0 27 12 6 17 22 17 58 0 41 -4 52 -26 69 -35 27 -104 29 -127 3z m107 -12 c22 -8 26 -16 26 -53 0 -53 -13 -67 -62 -67 -21 0 -38 -4 -38 -10 0 -5 14 -10 31 -10 50 0 69 -16 69 -58 0 -48 -14 -62 -61 -62 -70 0 -69 -1 -69 135 0 89 3 125 13 128 21 9 64 7 91 -3z"/>
 <path d="M2160 1725 c0 -97 4 -155 10 -155 6 0 10 58 10 155 0 97 -4 155 -10 155 -6 0 -10 -58 -10 -155z"/>
 <path d="M2298 1874 c-5 -4 -8 -71 -8 -150 0 -122 2 -143 16 -148 47 -18 61 8 99 179 10 44 24 86 31 94 27 30 34 0 34 -140 0 -91 4 -138 10 -134 11 7 14 262 4 289 -7 19 -47 21 -61 4 -6 -7 -23 -65 -38 -128 -31 -128 -41 -153 -58 -147 -8 2 -14 49 -17 146 -3 79 -8 139 -12 135z"/>
 <path d="M2600 1741 c0 -133 1 -141 22 -155 35 -24 113 -21 138 6 18 20 20 35 20 155 0 78 -4 133 -10 133 -5 0 -10 -28 -12 -62 l-3 -63 -67 -3 -68 -3 0 60 c0 33 -4 63 -10 66 -6 4 -10 -43 -10 -134z m160 -69 c0 -32 -5 -63 -12 -70 -13 -13 -85 -16 -112 -6 -12 5 -16 21 -16 70 l0 64 70 0 70 0 0 -58z"/>
 <path d="M875 1425 c-28 -27 -33 -76 -11 -94 12 -10 12 -16 -2 -41 -14 -24 -15 -34 -4 -62 9 -26 9 -41 0 -65 -9 -25 -9 -38 0 -58 10 -21 10 -34 0 -62 -11 -29 -10 -39 3 -61 13 -24 13 -30 0 -54 -13 -23 -14 -32 -2 -63 9 -27 10 -40 2 -48 -16 -16 -14 -59 4 -84 13 -18 13 -22 0 -33 -8 -7 -15 -21 -15 -31 0 -23 -8 -23 -34 -4 -32 24 -51 18 -74 -24 l-22 -39 147 -95 c82 -52 211 -134 288 -182 77 -49 169 -107 205 -130 36 -23 81 -51 100 -62 l35 -22 57 37 c31 20 100 64 153 97 53 33 129 81 168 106 40 25 142 90 227 144 85 54 157 100 159 102 8 6 -29 74 -44 79 -8 4 -27 -1 -41 -11 -14 -9 -27 -15 -28 -13 -2 2 -9 17 -17 33 -12 25 -13 34 -2 55 16 32 16 52 -1 75 -12 16 -11 24 2 53 15 30 15 36 1 60 -12 23 -13 31 -2 52 7 14 13 30 13 35 0 6 -6 21 -13 35 -11 21 -10 29 2 52 14 24 14 30 -1 61 -10 22 -13 38 -7 44 16 16 19 55 5 81 -11 21 -11 29 2 52 13 23 14 32 3 57 -7 17 -24 35 -37 42 -18 8 -196 11 -610 11 l-585 0 -24 -25z m80 -25 c37 -41 -24 -97 -63 -58 -19 19 -14 45 10 62 29 20 31 20 53 -4z m595 -25 l0 -45 -277 0 -278 0 -1 45 -1 45 279 0 278 0 0 -45z m68 -194 l2 -232 103 3 102 3 3 233 c2 197 5 232 17 232 13 0 15 -36 15 -255 l0 -255 -140 0 -140 0 0 248 c0 137 3 252 7 256 23 23 28 -13 31 -233z m180 17 l2 -218 -75 0 -75 0 0 220 0 221 73 -3 72 -3 3 -217z m196 174 l1 -42 -52 0 -53 0 0 38 c0 21 3 42 7 46 4 4 27 6 52 4 l44 -3 1 -43z m95 29 c25 -25 17 -59 -15 -67 -14 -4 -31 -1 -39 6 -20 17 -19 57 3 69 24 14 29 14 51 -8z m-1135 -120 c31 -34 0 -80 -45 -66 -27 9 -34 43 -13 66 9 10 22 19 29 19 7 0 20 -9 29 -19z m596 -27 l0 -46 -62 7 c-123 13 -381 16 -392 5 -5 -5 -30 -10 -55 -10 l-46 0 0 45 0 45 278 0 277 0 0 -46z m442 1 l3 -45 -52 0 -53 0 0 38 c0 48 4 52 56 52 l42 0 4 -45z m97 26 c25 -25 17 -59 -15 -67 -14 -4 -31 -1 -39 6 -20 17 -19 57 3 69 24 14 29 14 51 -8z m-684 -226 l0 -140 -140 0 -140 0 -3 129 c-1 72 0 136 2 143 4 11 36 13 143 11 l138 -3 0 -140z m-451 109 c9 -8 16 -22 16 -29 0 -16 -27 -45 -41 -45 -22 0 -49 22 -49 40 0 22 25 50 45 50 7 0 21 -7 29 -16z m136 -29 l0 -45 -47 0 -48 0 -1 45 -1 45 49 0 48 0 0 -45z m460 0 l0 -45 -55 0 -55 0 0 45 0 45 55 0 55 0 0 -45z m446 29 c-3 -9 -6 -29 -6 -45 0 -28 -1 -29 -50 -29 l-50 0 0 45 0 45 56 0 c47 0 55 -3 50 -16z m90 8 c19 -13 23 -39 8 -61 -26 -36 -74 -21 -74 24 0 36 37 57 66 37z m-1132 -128 c9 -8 16 -20 16 -26 0 -16 -31 -48 -46 -48 -17 0 -44 28 -44 45 0 7 7 21 16 29 8 9 22 16 29 16 7 0 21 -7 29 -16z m136 -29 l0 -45 -47 0 -48 0 0 45 0 45 48 0 47 0 0 -45z m460 0 l0 -45 -55 0 -55 0 0 45 0 45 55 0 55 0 0 -45z m444 3 l-1 -43 -52 -3 -51 -3 0 39 c0 21 3 42 7 45 3 4 27 7 52 7 l46 0 -1 -42z m100 20 c13 -19 14 -25 2 -43 -26 -39 -76 -26 -76 19 0 46 48 62 74 24z m-1134 -117 c5 -11 10 -24 10 -30 0 -14 -29 -41 -45 -41 -7 0 -21 7 -29 16 -9 8 -16 22 -16 29 0 20 28 45 50 45 11 0 24 -9 30 -19z m132 -8 l3 -28 168 -3 167 -2 6 30 c6 29 9 30 60 30 50 0 53 -1 56 -27 l3 -28 165 0 165 0 3 28 c3 25 6 27 53 27 48 0 49 -1 49 -29 0 -16 3 -36 6 -45 6 -14 -42 -16 -497 -16 l-504 0 0 45 0 45 47 0 c43 0 47 -2 50 -27z m1001 6 c20 -27 10 -58 -19 -65 -30 -8 -54 11 -54 40 0 46 48 62 73 25z m-1139 -115 c21 -21 20 -37 -3 -58 -25 -23 -59 -13 -67 20 -12 46 37 72 70 38z m1040 -26 l-1 -43 -499 -3 -499 -2 0 45 0 45 500 0 500 0 -1 -42z m103 16 c12 -19 11 -24 -6 -45 -16 -21 -22 -22 -45 -11 -17 8 -26 19 -26 35 0 48 50 62 77 21z m-104 -136 l0 -43 -499 -3 -499 -2 0 45 0 45 495 2 c272 2 497 2 499 1 2 -2 4 -22 4 -45z m-1035 30 c29 -29 -7 -82 -49 -71 -24 7 -36 48 -19 68 15 18 51 20 68 3z m1128 4 c39 -26 6 -89 -38 -73 -26 9 -35 45 -18 67 13 15 38 18 56 6z m134 -77 c0 -6 -25 -25 -55 -43 -32 -20 -53 -38 -49 -44 4 -7 2 -8 -4 -4 -11 7 -98 -45 -470 -283 -79 -50 -145 -91 -148 -91 -2 0 -23 12 -47 27 -23 14 -47 26 -54 26 -7 0 -10 3 -8 7 2 3 -42 34 -98 69 -56 34 -196 122 -312 196 -115 73 -214 131 -220 127 -5 -3 -1 4 9 16 11 12 23 22 27 22 5 0 41 -21 81 -47 143 -91 591 -374 607 -383 12 -6 42 8 116 55 55 35 181 114 280 176 99 62 182 116 183 121 2 4 8 8 12 8 5 0 37 18 72 40 60 38 77 39 78 5z m-200 -39 c0 -2 -28 -23 -61 -45 l-61 -41 -401 0 -401 0 -68 40 c-37 23 -68 43 -68 45 0 3 239 5 530 5 292 0 530 -2 530 -4z m-235 -156 l-60 -40 -228 0 -229 0 -59 36 c-32 20 -59 38 -59 40 0 2 156 4 348 4 l347 0 -60 -40z m-345 -75 c0 -3 -6 -15 -12 -28 -7 -12 -14 -23 -15 -25 -2 -5 -83 47 -83 53 0 3 25 5 55 5 30 0 55 -2 55 -5z m220 1 c0 -5 -81 -58 -85 -54 -6 7 -25 47 -25 52 0 3 25 6 55 6 30 0 55 -2 55 -4z m-130 -35 c21 -41 -21 -81 -58 -55 -38 26 -22 74 25 74 12 0 27 -9 33 -19z"/>
 <path d="M1160 1055 l0 -105 105 0 105 0 0 105 0 105 -105 0 -105 0 0 -105z m90 45 c0 -27 -3 -30 -30 -30 -27 0 -30 3 -30 30 0 27 3 30 30 30 27 0 30 -3 30 -30z m90 0 c0 -27 -3 -30 -30 -30 -27 0 -30 3 -30 30 0 27 3 30 30 30 27 0 30 -3 30 -30z m-90 -90 c0 -27 -3 -30 -30 -30 -27 0 -30 3 -30 30 0 27 3 30 30 30 27 0 30 -3 30 -30z m90 0 c0 -27 -3 -30 -30 -30 -27 0 -30 3 -30 30 0 27 3 30 30 30 27 0 30 -3 30 -30z"/>
 </g>
<g id="layer2" fill="#fefefe" stroke="none">
 <path d="M0 1015 l0 -1015 1525 0 1525 0 0 1015 0 1015 -1525 0 -1525 0 0 -1015z m390 850 c24 -22 28 -85 6 -85 -9 0 -16 12 -18 32 -2 26 -9 34 -33 41 -18 5 -41 4 -57 -2 -25 -9 -26 -14 -33 -103 -8 -107 2 -144 39 -154 41 -10 81 9 84 39 5 38 32 35 32 -2 0 -52 -47 -79 -117 -68 -66 11 -73 25 -73 157 0 120 4 136 45 159 27 16 102 7 125 -14z m276 3 c9 -9 14 -55 16 -140 3 -148 -1 -158 -79 -165 -36 -3 -56 1 -80 16 l-33 21 0 129 0 129 33 16 c36 19 122 15 143 -6z m810 6 c30 -14 34 -21 34 -55 0 -49 -27 -55 -32 -7 -2 26 -8 33 -35 40 -18 5 -42 4 -56 -1 -21 -8 -26 -18 -32 -70 -4 -34 -4 -88 0 -120 l7 -60 38 -6 c49 -8 80 8 80 40 0 16 6 25 15 25 10 0 15 -11 15 -35 0 -28 -5 -37 -30 -50 -40 -21 -89 -19 -127 5 l-33 20 0 123 c0 106 3 126 18 139 36 32 87 36 138 12z m-666 -123 c0 -140 7 -161 54 -161 35 0 56 22 59 62 5 63 -6 78 -58 78 -33 0 -45 4 -45 15 0 24 95 20 120 -5 29 -29 29 -129 -1 -156 -26 -23 -117 -26 -142 -5 -24 19 -26 301 -2 301 13 0 15 -21 15 -129z m260 69 l0 -60 65 0 65 0 0 60 c0 47 3 60 15 60 13 0 15 -22 15 -138 0 -124 -2 -141 -19 -156 -28 -25 -90 -31 -134 -13 l-37 16 0 145 c0 123 2 146 15 146 12 0 15 -13 15 -60z m560 0 l0 -61 63 3 62 3 3 58 c2 42 7 57 17 57 22 0 22 -272 0 -294 -24 -24 -84 -31 -129 -15 -49 17 -53 31 -48 197 3 88 7 112 18 112 10 0 14 -15 14 -60z m424 41 c20 -17 22 -100 2 -127 -8 -10 -11 -23 -7 -29 14 -17 20 -57 14 -87 -8 -38 -53 -62 -105 -55 -71 10 -78 23 -78 160 0 152 6 161 96 155 34 -2 69 -10 78 -17z m136 -137 c0 -143 -1 -155 -17 -152 -10 2 -18 11 -17 21 0 9 1 78 2 152 2 113 4 135 17 135 13 0 15 -24 15 -156z m130 16 c0 -83 4 -140 10 -140 9 0 13 13 45 140 38 153 31 140 75 140 l40 0 0 -155 c0 -131 -2 -155 -15 -155 -13 0 -15 22 -15 141 0 177 -12 179 -55 7 -18 -68 -35 -130 -39 -136 -4 -7 -23 -12 -42 -12 l-34 0 0 155 c0 131 2 155 15 155 13 0 15 -22 15 -140z m300 80 l0 -60 65 0 65 0 0 60 c0 47 3 60 15 60 13 0 15 -23 15 -144 0 -168 -1 -170 -90 -171 -95 0 -100 9 -100 177 0 116 2 138 15 138 12 0 15 -13 15 -60z m-503 -392 c25 -23 30 -66 12 -100 -8 -14 -8 -23 0 -31 14 -14 14 -62 0 -88 -7 -15 -7 -24 1 -35 8 -8 10 -28 6 -51 -3 -21 -6 -44 -5 -50 1 -28 2 -89 0 -108 -1 -11 2 -37 5 -58 4 -23 2 -43 -6 -51 -8 -11 -8 -20 -1 -35 14 -25 14 -74 1 -87 -6 -6 -5 -22 3 -45 l12 -35 30 18 c17 10 33 18 36 18 4 0 19 -19 34 -41 26 -40 26 -42 8 -59 -10 -10 -88 -61 -173 -115 -85 -53 -171 -107 -190 -120 -19 -13 -116 -74 -214 -135 l-180 -113 -48 27 c-26 15 -84 50 -128 79 -80 52 -157 100 -445 283 -82 52 -152 99 -153 105 -5 12 45 89 56 89 5 0 17 -7 28 -15 26 -20 31 -19 47 11 12 23 12 31 0 55 -14 27 -9 74 8 84 4 3 1 21 -8 39 -14 30 -14 37 -1 63 13 27 13 34 0 58 -12 24 -12 32 0 59 12 26 12 35 1 56 -16 31 -16 39 0 70 11 21 10 30 -2 54 -13 26 -12 33 2 58 14 25 14 30 0 58 -12 26 -13 36 -3 61 7 16 20 34 29 39 9 6 257 10 615 10 l600 0 23 -22z"/>
 <path d="M560 1853 c-32 -12 -40 -37 -40 -132 0 -53 4 -101 8 -107 11 -18 66 -26 95 -15 l27 11 0 114 c0 104 -2 116 -19 126 -21 11 -46 12 -71 3z"/>
 <path d="M1070 1670 c0 -48 4 -61 19 -70 28 -14 63 -12 89 6 18 12 22 25 22 70 l0 54 -65 0 -65 0 0 -60z"/>
 <path d="M1630 1670 c0 -54 2 -62 24 -71 33 -16 96 -3 98 19 1 9 2 38 2 64 l1 48 -62 0 -63 0 0 -60z"/>
 <path d="M1920 1824 c-11 -28 -13 -166 -4 -202 8 -27 43 -37 81 -25 24 8 28 16 31 51 3 37 0 43 -23 52 -14 6 -37 10 -51 10 -13 0 -24 5 -24 10 0 6 11 10 24 10 65 0 97 40 76 94 -8 23 -15 26 -55 26 -40 0 -47 -3 -55 -26z"/>
 <path d="M2620 1678 c0 -29 4 -59 8 -66 12 -18 75 -26 101 -13 18 10 21 21 21 71 l0 60 -65 0 -65 0 0 -52z"/>
 <path d="M894 1396 c-12 -31 0 -51 31 -51 27 0 30 3 30 30 0 25 -4 30 -28 33 -17 2 -29 -2 -33 -12z"/>
 <path d="M1000 1370 l0 -40 263 0 c283 0 287 1 287 52 l0 28 -275 0 -275 0 0 -40z"/>
 <path d="M1590 1165 l0 -245 135 0 135 0 0 245 c0 211 -2 245 -15 245 -13 0 -15 -33 -15 -235 l0 -236 -107 3 -108 3 -3 233 c-1 143 -6 232 -12 232 -6 0 -10 -91 -10 -245z"/>
 <path d="M1650 1195 l0 -216 68 3 67 3 3 213 2 212 -70 0 -70 0 0 -215z"/>
 <path d="M1900 1370 l0 -40 43 0 43 0 -1 40 0 40 -42 0 -43 0 0 -40z"/>
 <path d="M2030 1390 c-9 -16 -8 -25 1 -36 16 -19 58 -18 66 2 16 41 -46 73 -67 34z"/>
 <path d="M894 1276 c-12 -31 0 -51 31 -51 27 0 30 3 30 30 0 25 -4 30 -28 33 -17 2 -29 -2 -33 -12z"/>
 <path d="M1000 1250 c0 -40 0 -40 39 -40 22 0 43 5 46 10 4 6 75 10 180 10 105 0 176 -4 180 -10 9 -14 78 -13 93 2 7 7 12 25 12 40 l0 28 -275 0 -275 0 0 -40z"/>
 <path d="M1900 1250 l0 -40 43 0 43 0 -1 40 0 40 -42 0 -43 0 0 -40z"/>
 <path d="M2030 1270 c-9 -16 -8 -25 1 -36 16 -19 58 -18 66 2 16 41 -46 73 -67 34z"/>
 <path d="M1130 1055 l0 -135 135 0 135 0 0 135 0 135 -135 0 -135 0 0 -135z m245 0 l0 -110 -110 0 -110 0 -3 99 c-1 55 0 106 2 113 4 11 30 13 113 11 l108 -3 0 -110z"/>
 <path d="M894 1156 c-12 -31 0 -51 31 -51 27 0 30 3 30 30 0 25 -4 30 -28 33 -17 2 -29 -2 -33 -12z"/>
 <path d="M1000 1135 c0 -35 0 -35 45 -35 45 0 45 0 45 35 0 35 0 35 -45 35 -45 0 -45 0 -45 -35z"/>
 <path d="M1440 1136 l0 -36 56 0 55 0 -3 33 c-3 31 -4 32 -55 35 l-53 3 0 -35z"/>
 <path d="M1900 1135 c0 -35 1 -35 43 -35 41 0 42 0 42 35 0 35 -1 35 -42 35 -42 0 -43 0 -43 -35z"/>
 <path d="M2031 1148 c-11 -29 3 -48 35 -48 14 0 25 8 29 20 14 44 -48 70 -64 28z"/>
 <path d="M894 1036 c-12 -31 0 -51 31 -51 27 0 30 3 30 30 0 25 -4 30 -28 33 -17 2 -29 -2 -33 -12z"/>
 <path d="M1000 1015 c0 -35 0 -35 45 -35 45 0 45 0 45 35 0 35 0 35 -45 35 -45 0 -45 0 -45 -35z"/>
 <path d="M1440 1014 l0 -35 53 3 c51 3 52 4 55 36 l3 32 -55 0 -56 0 0 -36z"/>
 <path d="M1900 1015 c0 -35 1 -35 43 -35 41 0 42 0 42 35 0 35 -1 35 -42 35 -42 0 -43 0 -43 -35z"/>
 <path d="M2031 1028 c-10 -27 3 -48 29 -48 25 0 43 25 35 50 -9 28 -53 27 -64 -2z"/>
 <path d="M894 916 c-12 -31 0 -51 31 -51 27 0 30 3 30 30 0 25 -4 30 -28 33 -17 2 -29 -2 -33 -12z"/>
 <path d="M1000 895 l0 -35 493 0 492 0 0 35 c0 34 -1 35 -42 35 -36 0 -42 -3 -45 -22 -3 -23 -5 -23 -175 -26 l-173 -2 0 25 c0 24 -3 25 -55 25 -52 0 -55 -1 -55 -25 l0 -25 -172 2 c-171 3 -173 3 -176 26 -3 19 -9 22 -48 22 -44 0 -44 0 -44 -35z"/>
 <path d="M2029 914 c-17 -21 0 -49 31 -49 31 0 48 28 31 49 -8 9 -21 16 -31 16 -10 0 -23 -7 -31 -16z"/>
 <path d="M1000 780 l0 -40 493 0 492 0 0 40 1 40 -493 0 -493 0 0 -40z"/>
 <path d="M894 796 c-12 -31 0 -51 31 -51 27 0 30 3 30 30 0 25 -4 30 -28 33 -17 2 -29 -2 -33 -12z"/>
 <path d="M2031 796 c-9 -11 -10 -20 -1 -36 21 -39 83 -7 67 34 -8 20 -50 21 -66 2z"/>
 <path d="M900 686 c-6 -8 -10 -25 -8 -38 2 -18 9 -23 33 -23 24 0 31 5 33 24 3 15 -3 30 -14 38 -23 17 -29 16 -44 -1z"/>
 <path d="M1000 660 l0 -40 493 0 492 0 0 40 1 40 -493 0 -493 0 0 -40z"/>
 <path d="M2027 678 c-9 -25 12 -60 34 -56 27 4 44 30 36 52 -8 19 -63 22 -70 4z"/>
 <path d="M776 625 c-4 -10 17 -29 70 -62 42 -27 90 -57 108 -68 122 -80 515 -325 528 -330 11 -4 53 16 117 57 56 35 144 90 196 123 53 33 170 107 261 164 132 82 162 106 153 117 -11 14 -12 14 -259 -144 -52 -33 -176 -111 -274 -172 l-180 -113 -50 28 c-28 16 -97 58 -153 94 -56 36 -130 84 -165 105 -35 22 -125 79 -200 128 -76 48 -140 88 -142 88 -2 0 -6 -7 -10 -15z"/>
 <path d="M990 565 c6 -8 31 -26 55 -40 l44 -25 403 0 403 0 52 30 c28 16 54 34 58 40 4 7 -162 10 -511 10 -451 0 -515 -2 -504 -15z"/>
 <path d="M1160 456 c0 -3 26 -21 59 -40 l59 -36 216 0 217 0 62 40 62 40 -337 0 c-186 0 -338 -2 -338 -4z"/>
 <path d="M1473 323 c-19 -7 -16 -62 3 -70 39 -15 71 40 38 64 -19 14 -22 14 -41 6z"/>
 </g>

</svg>